<svg width="24" height="24" viewBox="0 0 24 24" fill="none" xmlns="http://www.w3.org/2000/svg">
<path d="M11.9998 8L10.6698 8.09C9.80982 7.07 7.39982 4.5 4.99982 4.5C4.99982 4.5 3.02982 7.46 4.95982 11.41C4.40982 12.24 4.06982 12.67 3.99982 13.66L2.06982 13.95L2.27982 14.93L4.03982 14.67L4.17982 15.38L2.60982 16.32L3.07982 17.21L4.52982 16.32C5.67982 18.76 8.58982 20 11.9998 20C15.4098 20 18.3198 18.76 19.4698 16.32L20.9198 17.21L21.3898 16.32L19.8198 15.38L19.9598 14.67L21.7198 14.93L21.9298 13.95L19.9998 13.66C19.9298 12.67 19.5898 12.24 19.0398 11.41C20.9698 7.46 18.9998 4.5 18.9998 4.5C16.5998 4.5 14.1898 7.07 13.3298 8.09L11.9998 8ZM8.99982 11C9.26504 11 9.51939 11.1054 9.70693 11.2929C9.89447 11.4804 9.99982 11.7348 9.99982 12C9.99982 12.2652 9.89447 12.5196 9.70693 12.7071C9.51939 12.8946 9.26504 13 8.99982 13C8.73461 13 8.48025 12.8946 8.29272 12.7071C8.10518 12.5196 7.99982 12.2652 7.99982 12C7.99982 11.7348 8.10518 11.4804 8.29272 11.2929C8.48025 11.1054 8.73461 11 8.99982 11M14.9998 11C15.265 11 15.5194 11.1054 15.7069 11.2929C15.8945 11.4804 15.9998 11.7348 15.9998 12C15.9998 12.2652 15.8945 12.5196 15.7069 12.7071C15.5194 12.8946 15.265 13 14.9998 13C14.7346 13 14.4803 12.8946 14.2927 12.7071C14.1052 12.5196 13.9998 12.2652 13.9998 12C13.9998 11.7348 14.1052 11.4804 14.2927 11.2929C14.4803 11.1054 14.7346 11 14.9998 11M10.9998 14H12.9998L12.2998 15.39C12.4998 16.03 13.0598 16.5 13.7498 16.5C14.1476 16.5 14.5292 16.342 14.8105 16.0607C15.0918 15.7794 15.2498 15.3978 15.2498 15H15.7498C15.7498 15.5304 15.5391 16.0391 15.164 16.4142C14.789 16.7893 14.2803 17 13.7498 17C12.9998 17 12.3498 16.59 11.9998 16C11.6498 16.59 10.9998 17 10.2498 17C9.71939 17 9.21068 16.7893 8.83561 16.4142C8.46054 16.0391 8.24982 15.5304 8.24982 15H8.74982C8.74982 15.3978 8.90786 15.7794 9.18916 16.0607C9.47047 16.342 9.852 16.5 10.2498 16.5C10.9398 16.5 11.4998 16.03 11.6998 15.39L10.9998 14Z" fill="url(#paint0_linear_28_7)"/>
<defs>
<linearGradient id="paint0_linear_28_7" x1="11.9998" y1="4.5" x2="11.9998" y2="20" gradientUnits="userSpaceOnUse">
<stop stop-color="#049DBF"/>
<stop offset="1" stop-color="#A36CD9"/>
</linearGradient>
</defs>
</svg>
