<svg width="200" height="200" viewBox="0 0 200 200" fill="none" xmlns="http://www.w3.org/2000/svg">
<path fill-rule="evenodd" clip-rule="evenodd" d="M45.5749 20.5754C46.1555 19.9934 46.8452 19.5316 47.6045 19.2165C48.3638 18.9014 49.1779 18.7393 49.9999 18.7393C50.822 18.7393 51.636 18.9014 52.3954 19.2165C53.1547 19.5316 53.8444 19.9934 54.4249 20.5754L129.425 95.5754C130.007 96.156 130.469 96.8457 130.784 97.605C131.099 98.3643 131.261 99.1783 131.261 100C131.261 100.823 131.099 101.637 130.784 102.396C130.469 103.155 130.007 103.845 129.425 104.425L54.4249 179.425C53.2514 180.599 51.6596 181.258 49.9999 181.258C48.3402 181.258 46.7485 180.599 45.5749 179.425C44.4014 178.252 43.742 176.66 43.742 175C43.742 173.341 44.4014 171.749 45.5749 170.575L116.162 100L45.5749 29.4254C44.9929 28.8449 44.5311 28.1552 44.216 27.3959C43.901 26.6365 43.7388 25.8225 43.7388 25.0004C43.7388 24.1783 43.901 23.3643 44.216 22.605C44.5311 21.8457 44.9929 21.156 45.5749 20.5754V20.5754Z" fill="#049dbf"/>
<path fill-rule="evenodd" clip-rule="evenodd" d="M95.5749 20.5754C96.1555 19.9934 96.8452 19.5316 97.6045 19.2165C98.3638 18.9014 99.1778 18.7393 99.9999 18.7393C100.822 18.7393 101.636 18.9014 102.395 19.2165C103.155 19.5316 103.844 19.9934 104.425 20.5754L179.425 95.5754C180.007 96.156 180.469 96.8457 180.784 97.605C181.099 98.3643 181.261 99.1783 181.261 100C181.261 100.823 181.099 101.637 180.784 102.396C180.469 103.155 180.007 103.845 179.425 104.425L104.425 179.425C103.251 180.599 101.66 181.258 99.9999 181.258C98.3402 181.258 96.7485 180.599 95.5749 179.425C94.4014 178.252 93.742 176.66 93.742 175C93.742 173.341 94.4014 171.749 95.5749 170.575L166.162 100L95.5749 29.4254C94.9929 28.8449 94.5311 28.1552 94.216 27.3959C93.9009 26.6365 93.7388 25.8225 93.7388 25.0004C93.7388 24.1783 93.9009 23.3643 94.216 22.605C94.5311 21.8457 94.9929 21.156 95.5749 20.5754V20.5754Z" fill="#a36cd9"/>
</svg>
